<?xml version="1.0" standalone="no"?>
<!DOCTYPE svg PUBLIC "-//W3C//DTD SVG 20010904//EN"
 "http://www.w3.org/TR/2001/REC-SVG-20010904/DTD/svg10.dtd">
<svg version="1.0" xmlns="http://www.w3.org/2000/svg"
 width="512.000000pt" height="512.000000pt" viewBox="0 0 512.000000 512.000000"
 preserveAspectRatio="xMidYMid meet">
<metadata>
Created by potrace 1.16, written by Peter Selinger 2001-2019
</metadata>
<g transform="translate(0.000000,512.000000) scale(0.100000,-0.100000)"
fill="#559847" stroke="none">
<path d="M1759 3471 c-25 -8 -203 -102 -404 -214 -197 -109 -215 -127 -215
-210 0 -61 31 -101 110 -144 36 -19 88 -47 115 -62 456 -248 442 -243 548
-193 71 33 424 227 498 273 62 39 83 81 77 148 -3 33 -12 60 -24 71 -18 19
-331 196 -505 287 -89 46 -150 60 -200 44z"/>
<path d="M3838 3253 l-48 -4 0 -318 0 -319 25 -4 c39 -8 77 3 82 23 6 22 19
25 26 6 9 -23 72 -47 121 -47 55 0 113 27 149 69 86 103 62 303 -45 377 -55
38 -149 41 -197 7 -16 -13 -31 -23 -33 -23 -2 0 -3 53 -3 117 0 131 6 122 -77
116z m222 -308 c90 -47 75 -215 -21 -239 -47 -12 -89 8 -111 54 -44 86 5 199
85 200 10 0 31 -7 47 -15z"/>
<path d="M2803 3233 c-24 -2 -43 -6 -43 -8 0 -2 41 -129 91 -282 50 -153 94
-289 98 -303 7 -24 12 -25 92 -28 l85 -3 102 308 c74 226 98 309 89 315 -20
13 -127 9 -132 -4 -2 -7 -32 -105 -66 -218 -34 -113 -65 -212 -70 -220 -7 -13
-8 -13 -13 0 -11 33 -96 309 -116 378 -23 80 -13 74 -117 65z"/>
<path d="M4425 3051 c-124 -56 -173 -232 -101 -356 75 -127 259 -149 365 -44
22 23 41 45 41 50 0 13 -56 39 -83 39 -14 0 -30 -7 -37 -15 -7 -8 -29 -20 -50
-26 -56 -17 -105 2 -130 51 -11 22 -20 42 -20 45 0 3 72 5 160 5 l160 0 0 58
c-1 132 -84 212 -220 212 -25 0 -63 -9 -85 -19z m147 -101 c14 -11 28 -29 31
-40 5 -19 1 -20 -89 -20 -60 0 -94 4 -94 11 0 6 13 24 29 40 35 35 86 39 123
9z"/>
<path d="M3315 3033 c3 -15 40 -114 81 -221 41 -106 74 -198 74 -203 0 -22
-50 -59 -80 -59 l-31 0 3 -52 3 -53 43 -3 c58 -4 125 28 145 71 22 47 187 517
187 533 0 10 -16 14 -60 14 -70 0 -63 12 -113 -167 -18 -62 -34 -113 -37 -113
-3 0 -25 63 -50 140 l-44 140 -64 0 -64 0 7 -27z"/>
<path d="M1166 2754 c-23 -22 -29 -55 -24 -129 3 -48 9 -71 23 -85 21 -20 473
-275 560 -316 72 -34 121 -31 208 12 171 86 504 278 530 305 25 27 27 35 27
114 0 75 -2 85 -22 99 -27 19 -65 20 -98 3 -14 -8 -128 -71 -254 -142 -126
-70 -244 -131 -264 -136 -53 -12 -104 9 -325 132 -270 151 -286 159 -318 159
-15 0 -35 -7 -43 -16z"/>
<path d="M2916 2475 c-58 -21 -88 -46 -113 -95 -36 -70 -28 -147 20 -198 25
-27 97 -65 142 -76 63 -16 127 -49 136 -73 19 -51 -27 -93 -105 -93 -39 0 -93
32 -108 65 -6 14 -15 25 -21 25 -15 0 -107 -54 -107 -63 0 -21 108 -114 146
-125 52 -15 132 -15 191 0 68 17 129 79 138 140 18 119 -36 178 -219 238 -103
34 -129 70 -87 121 16 20 28 24 74 24 45 0 60 -5 81 -24 14 -14 26 -30 26 -38
0 -7 6 -13 14 -13 26 0 106 39 106 52 0 42 -75 115 -139 137 -46 15 -127 13
-175 -4z"/>
<path d="M4540 2165 l0 -325 60 0 60 0 0 78 c0 67 3 79 20 90 19 12 25 6 78
-77 l57 -90 69 -1 c58 0 67 2 62 16 -3 9 -41 67 -83 130 l-76 114 83 86 c66
67 81 87 69 95 -17 10 -119 12 -135 1 -6 -4 -41 -42 -78 -85 l-66 -79 0 186 0
186 -60 0 -60 0 0 -325z"/>
<path d="M3370 2391 c-22 -6 -25 -13 -28 -58 -3 -50 -4 -52 -35 -55 -31 -3
-32 -4 -29 -48 4 -48 16 -63 45 -54 15 5 17 -4 17 -103 0 -59 5 -124 10 -144
21 -74 82 -105 180 -92 l40 6 0 53 0 54 -29 -6 c-16 -3 -38 -1 -50 5 -19 11
-21 20 -21 116 l0 105 28 1 c82 3 77 0 77 54 l0 50 -55 5 -55 5 -3 58 -3 57
-32 -1 c-18 -1 -43 -4 -57 -8z"/>
<path d="M1165 2320 c-40 -45 -36 -194 7 -236 23 -23 294 -179 486 -280 86
-46 110 -54 155 -54 29 0 70 9 92 19 93 42 542 305 567 331 48 52 50 163 3
214 -43 47 -75 38 -283 -78 -281 -156 -324 -176 -378 -176 -45 0 -93 20 -209
85 -368 207 -400 220 -440 175z"/>
<path d="M3747 2285 c-22 -7 -49 -23 -62 -35 -23 -22 -51 -77 -44 -85 3 -2 24
-8 47 -13 38 -9 44 -8 74 19 22 19 44 29 66 29 36 0 72 -29 72 -59 0 -16 -10
-19 -72 -23 -126 -8 -194 -54 -205 -138 -17 -125 150 -198 252 -109 l34 30 3
-28 c3 -26 6 -28 56 -31 l54 -3 -4 180 c-3 162 -5 182 -24 208 -47 64 -158 90
-247 58z m153 -256 c0 -53 -39 -88 -98 -89 -36 0 -44 4 -54 25 -9 21 -8 28 7
45 21 23 64 38 113 39 26 1 32 -3 32 -20z"/>
<path d="M4219 2286 c-118 -42 -174 -165 -135 -298 51 -177 306 -215 386 -58
l20 39 -21 12 c-54 28 -75 28 -103 -1 -50 -53 -119 -48 -156 12 -21 35 -26 91
-11 131 27 71 109 91 154 37 14 -16 32 -30 40 -30 22 0 87 29 87 39 0 4 -14
27 -31 50 -51 71 -143 98 -230 67z"/>
</g>
</svg>
